# xmcd
#
# Track frame offsets:
#	150
#	18190
#	35088
#	54261
#	80644
#	103371
#	125478
#	146617
#	165512
#	184463
#	201229
#	216054
#	235431
#	256766
#
# Disc length: 3778 seconds
#
# Revision: 1
# Processed by: cddbd v1.5.2PL0 Copyright (c) Steve Scherf et al.
# Submitted via: EasyCDDAExtractor 16.0.6.1
#
DISCID=ca0ec00e
DTITLE=鈴木常吉 - ぜいご
DYEAR=2006
DGENRE=Pop
TTITLE0=疫病の神
TTITLE1=アイオー夜曲
TTITLE2=くぬぎ
TTITLE3=アカヒゲ
TTITLE4=サマータイム
TTITLE5=ワーリー・ブルース
TTITLE6=目が覚めた
TTITLE7=石
TTITLE8=藪
TTITLE9=ミノ君
TTITLE10=煙草のめのめ
TTITLE11=父のワルツ
TTITLE12=思ひで
TTITLE13=お茶碗
EXTD=
EXTT0=
EXTT1=
EXTT2=
EXTT3=
EXTT4=
EXTT5=
EXTT6=
EXTT7=
EXTT8=
EXTT9=
EXTT10=
EXTT11=
EXTT12=
EXTT13=
PLAYORDER=
